<svg xmlns="http://www.w3.org/2000/svg" width="24" height="24" viewBox="0 0 24 24" fill="none">
  <path opacity="0.50951" fill-rule="evenodd" clip-rule="evenodd" d="M10.199 5.7175C10.2487 5.81859 10.2814 5.92683 10.2962 6.03812L10.5676 10.0748L10.7024 12.1038C10.7038 12.3124 10.7365 12.5197 10.7995 12.719C10.9623 13.1056 11.3538 13.3514 11.7798 13.3342L18.2707 12.9096C18.5518 12.905 18.8232 13.0101 19.0253 13.2019C19.1937 13.3617 19.3024 13.5708 19.3366 13.7956L19.3481 13.9321C19.0795 17.6517 16.3478 20.7541 12.6361 21.555C8.92447 22.3559 5.11835 20.6641 3.2842 17.3982C2.75543 16.4494 2.42516 15.4065 2.31277 14.3307C2.26582 14.0123 2.24515 13.6906 2.25095 13.3689C2.24516 9.38104 5.08481 5.93341 9.05981 5.10228C9.53819 5.02778 10.0072 5.28105 10.199 5.7175Z" fill="#4E1BD9"/>
  <path fill-rule="evenodd" clip-rule="evenodd" d="M12.8474 2.25178C17.2933 2.36489 21.0299 5.5621 21.7492 9.8685L21.7423 9.90029L21.7227 9.94646L21.7255 10.0733C21.7153 10.2414 21.6504 10.4031 21.5386 10.5337C21.4221 10.6697 21.263 10.7624 21.0878 10.7983L20.9809 10.813L13.4921 11.2982C13.2429 11.3228 12.9949 11.2425 12.8097 11.0772C12.6553 10.9396 12.5566 10.7537 12.5287 10.5534L12.0261 3.07497C12.0173 3.04968 12.0173 3.02227 12.0261 2.99698C12.0329 2.79084 12.1237 2.59599 12.278 2.45597C12.4324 2.31594 12.6374 2.2424 12.8474 2.25178Z" fill="#FAAB3C"/>
</svg>