<svg xmlns="http://www.w3.org/2000/svg" width="24" height="24" viewBox="0 0 24 24" fill="none">
  <path fill-rule="evenodd" clip-rule="evenodd" d="M11.9485 14.668C8.32601 14.668 5.26953 15.2599 5.26953 17.5446C5.26953 19.8302 8.34575 20.4013 11.9485 20.4013C15.5709 20.4013 18.6274 19.8094 18.6274 17.5247C18.6274 15.2391 15.5512 14.668 11.9485 14.668Z" fill="#4E1BD9"/>
  <path fill-rule="evenodd" clip-rule="evenodd" d="M11.9451 12.491C14.398 12.491 16.3648 10.5127 16.3648 8.04553C16.3648 5.57742 14.398 3.6001 11.9451 3.6001C9.49219 3.6001 7.52539 5.57742 7.52539 8.04553C7.52539 10.5127 9.49219 12.491 11.9451 12.491Z" fill="#FAAB3C"/>
  <path fill-rule="evenodd" clip-rule="evenodd" d="M21.542 9.08133C22.1766 6.58488 20.316 4.34277 17.9468 4.34277C17.6892 4.34277 17.4428 4.37115 17.2021 4.41937C17.1702 4.42694 17.1345 4.44301 17.1157 4.47138C17.094 4.50732 17.1101 4.55554 17.1335 4.58675C17.8453 5.59101 18.2542 6.81372 18.2542 8.12626C18.2542 9.38396 17.8791 10.5566 17.221 11.5296C17.1533 11.6298 17.2134 11.7651 17.3329 11.7859C17.4983 11.8152 17.6675 11.8303 17.8405 11.8351C19.5657 11.8804 21.1142 10.7636 21.542 9.08133Z" fill="#FAAB3C"/>
  <path fill-rule="evenodd" clip-rule="evenodd" d="M23.3493 14.958C23.0334 14.281 22.2709 13.8167 21.1117 13.5888C20.5645 13.4545 19.0837 13.2653 17.7064 13.2909C17.6857 13.2938 17.6744 13.3079 17.6725 13.3174C17.6697 13.3306 17.6754 13.3533 17.7026 13.3675C18.3391 13.6843 20.7996 15.0621 20.4902 17.968C20.477 18.0938 20.5776 18.2026 20.7027 18.1836C21.3082 18.0966 22.866 17.76 23.3493 16.7113C23.6163 16.1571 23.6163 15.5132 23.3493 14.958Z" fill="#4E1BD9"/>
  <path fill-rule="evenodd" clip-rule="evenodd" d="M6.79674 4.41937C6.55698 4.3702 6.3097 4.34277 6.05209 4.34277C3.68288 4.34277 1.82229 6.58488 2.45784 9.08133C2.88468 10.7636 4.43314 11.8804 6.15835 11.8351C6.33133 11.8303 6.50148 11.8142 6.66602 11.7859C6.78546 11.7651 6.84562 11.6298 6.7779 11.5296C6.11981 10.5556 5.74465 9.38396 5.74465 8.12626C5.74465 6.81278 6.15457 5.59007 6.8663 4.58675C6.88888 4.55554 6.90578 4.50732 6.88321 4.47138C6.86442 4.44207 6.82961 4.42694 6.79674 4.41937Z" fill="#FAAB3C"/>
  <path fill-rule="evenodd" clip-rule="evenodd" d="M2.88684 13.589C1.72761 13.8169 0.966075 14.2812 0.65018 14.9583C0.382232 15.5134 0.382232 16.1573 0.65018 16.7125C1.13343 17.7602 2.69128 18.0978 3.29675 18.1838C3.42179 18.2027 3.52145 18.095 3.50829 17.9682C3.19897 15.0632 5.65939 13.6855 6.29684 13.3687C6.32314 13.3535 6.32876 13.3318 6.32598 13.3176C6.32409 13.3082 6.31375 13.294 6.29306 13.2921C4.91478 13.2656 3.43495 13.4547 2.88684 13.589Z" fill="#4E1BD9"/>
</svg>