<svg xmlns="http://www.w3.org/2000/svg" width="21" height="18" viewBox="0 0 21 18" fill="none">
  <path opacity="0.500953" fill-rule="evenodd" clip-rule="evenodd" d="M14.7691 0C18.1808 0 20.1969 1.97874 20.1969 5.33817V5.37547H16.0046C14.0536 5.37893 12.4731 6.93557 12.4696 8.85709C12.467 10.783 14.0492 12.3465 16.0046 12.3491H20.2004V12.6551C20.2004 16.0146 18.1843 18.0011 14.7726 18.0011H5.82911C2.41647 18.0011 0.400391 16.0146 0.400391 12.6551V5.33817C0.400391 1.97874 2.41647 0 5.82911 0H14.7691ZM11.0287 3.60022H5.36493C4.94387 3.60163 4.6022 3.86855 4.6004 4.19815C4.59864 4.52919 4.94122 4.79888 5.36493 4.80029H11.0359C11.4596 4.79888 11.8022 4.52919 11.8004 4.19746C11.7986 3.86646 11.4525 3.59886 11.0287 3.60022Z" fill="#F3EEFE"/>
  <path fill-rule="evenodd" clip-rule="evenodd" d="M14.2386 9.11723C14.4477 10.1161 15.2817 10.8188 16.2338 10.8005H19.4837C19.8798 10.8005 20.2012 10.456 20.2012 10.0302V7.37186C20.2003 6.9469 19.8798 6.60148 19.4837 6.60059H16.1573C15.0742 6.60421 14.1995 7.54822 14.2012 8.71149C14.2012 8.84768 14.2139 8.98382 14.2386 9.11723Z" fill="white"/>
  <path fill-rule="evenodd" clip-rule="evenodd" d="M16.3004 9.6004C16.7975 9.6004 17.2004 9.1974 17.2004 8.70035C17.2004 8.20325 16.7975 7.80029 16.3004 7.80029C15.8033 7.80029 15.4004 8.20325 15.4004 8.70035C15.4004 9.1974 15.8033 9.6004 16.3004 9.6004Z" fill="#4E1BD9"/>
</svg>