<svg xmlns="http://www.w3.org/2000/svg" width="21" height="18" viewBox="0 0 21 18" fill="none">
  <path fill-rule="evenodd" clip-rule="evenodd" d="M14.7671 0C18.1788 0 20.1949 1.97874 20.1949 5.33817V5.37547H16.0026C14.0516 5.37893 12.4711 6.93557 12.4676 8.85709C12.465 10.783 14.0472 12.3465 16.0026 12.3491H20.1984V12.6551C20.1984 16.0146 18.1824 18.0011 14.7706 18.0011H5.82715C2.41452 18.0011 0.398438 16.0146 0.398438 12.6551V5.33817C0.398438 1.97874 2.41452 0 5.82715 0H14.7671ZM11.0268 3.60022H5.36298C4.94192 3.60163 4.60025 3.86855 4.59844 4.19815C4.59669 4.52919 4.93926 4.79888 5.36298 4.80029H11.0339C11.4577 4.79888 11.8002 4.52919 11.7984 4.19746C11.7966 3.86646 11.4505 3.59886 11.0268 3.60022Z" fill="#4E1BD9"/>
  <path fill-rule="evenodd" clip-rule="evenodd" d="M14.2366 9.11723C14.4458 10.1161 15.2797 10.8188 16.2318 10.8005H19.4817C19.8779 10.8005 20.1992 10.456 20.1992 10.0302V7.37186C20.1984 6.9469 19.8779 6.60148 19.4817 6.60059H16.1553C15.0723 6.60421 14.1975 7.54822 14.1992 8.71149C14.1992 8.84768 14.212 8.98382 14.2366 9.11723Z" fill="#FAAB3C"/>
  <path fill-rule="evenodd" clip-rule="evenodd" d="M16.2984 9.6004C16.7955 9.6004 17.1984 9.1974 17.1984 8.70035C17.1984 8.20325 16.7955 7.80029 16.2984 7.80029C15.8014 7.80029 15.3984 8.20325 15.3984 8.70035C15.3984 9.1974 15.8014 9.6004 16.2984 9.6004Z" fill="#F3EEFE"/>
</svg>