<svg xmlns="http://www.w3.org/2000/svg" width="33" height="36" viewBox="0 0 33 36" fill="none">
  <path d="M15.6446 36.0002C7.57517 35.2019 1.23828 28.0719 1.23828 19.425C1.23828 10.25 8.37977 2.78223 17.1539 2.78223C25.423 2.78223 32.2356 9.40863 32.9991 17.8467C31.2372 11.9695 25.9751 7.68908 19.7791 7.68908C12.1443 7.69523 5.93075 14.1865 5.93075 22.1763C5.93075 28.6553 10.0242 34.1517 15.6446 36.0002Z" fill="white"/>
  <path d="M19.786 34.9683C13.1203 34.9683 7.68781 29.3736 7.55273 22.434C8.79192 26.7513 12.6328 29.9079 17.1608 29.9079C22.6873 29.9079 27.1859 25.2037 27.1859 19.4187C27.1859 14.6838 24.1673 10.6735 20.0386 9.37158C26.6691 9.51283 32.0252 15.1996 32.0252 22.1638C32.0252 24.8721 31.2265 27.4576 29.7113 29.65C28.9126 30.7247 27.967 31.7073 26.9217 32.5609C24.8485 34.1331 22.3701 34.9683 19.786 34.9683Z" fill="white"/>
  <ellipse cx="3.13615" cy="3.27943" rx="3.13615" ry="3.27943" fill="#23EB31"/>
  <path fill-rule="evenodd" clip-rule="evenodd" d="M21.6071 21.3042C22.9285 21.3042 23.9974 22.4219 23.9974 23.8037C23.9974 25.1855 22.9285 26.3032 21.6071 26.3032C20.2857 26.3032 19.2168 25.1855 19.2168 23.8037C19.2168 22.4219 20.2857 21.3042 21.6071 21.3042Z" fill="#FAAB3C"/>
</svg>